<svg id="SvgjsSvg1011" width="288" height="288" xmlns="http://www.w3.org/2000/svg" version="1.1" xmlns:xlink="http://www.w3.org/1999/xlink" xmlns:svgjs="http://svgjs.com/svgjs"><defs id="SvgjsDefs1012"></defs><g id="SvgjsG1013" transform="matrix(1,0,0,1,0,0)"><svg xmlns="http://www.w3.org/2000/svg" enable-background="new 0 0 100 100" viewBox="0 0 100 100" width="288" height="288"><path d="M46.5,55.5C45.5,54.6,45,53.3,45,52c0-1.1,0.4-2.1,1-3h8c1.5,2,1.3,4.7-0.5,6.5C51.6,57.5,48.4,57.5,46.5,55.5z M56.4,58.3	C54.6,60.1,52.3,61,50,61c-2.3,0-4.6-0.9-6.4-2.6c-1.7-1.7-2.6-4-2.6-6.4c0-1,0.2-2,0.5-3H9v32c0,3.3,2.7,6,6,6h70c3.3,0,6-2.7,6-6
	V49H58.5C59.6,52.2,58.9,55.8,56.4,58.3z M85,25H15c-3.3,0-6,2.7-6,6v14h82V31C91,27.7,88.3,25,85,25z M64,13H36v8h28V13z" fill="#4b5563" class="color000 svgShape"></path></svg></g></svg>